<svg width="25" height="25" viewBox="0 0 25 25" fill="none" xmlns="http://www.w3.org/2000/svg">
<path d="M17.0417 14.5833C17.125 13.8958 17.1875 13.2083 17.1875 12.5C17.1875 11.7917 17.125 11.1042 17.0417 10.4167H20.5625C20.7292 11.0833 20.8334 11.7813 20.8334 12.5C20.8334 13.2188 20.7292 13.9167 20.5625 14.5833H17.0417ZM15.198 20.375C15.823 19.2188 16.3021 17.9688 16.6355 16.6667H19.7084C18.6992 18.4045 17.0981 19.7208 15.198 20.375ZM14.9375 14.5833H10.0625C9.95837 13.8958 9.89587 13.2083 9.89587 12.5C9.89587 11.7917 9.95837 11.0938 10.0625 10.4167H14.9375C15.0313 11.0938 15.1042 11.7917 15.1042 12.5C15.1042 13.2083 15.0313 13.8958 14.9375 14.5833ZM12.5 20.7917C11.6355 19.5417 10.9375 18.1563 10.5105 16.6667H14.4896C14.0625 18.1563 13.3646 19.5417 12.5 20.7917ZM8.33337 8.33333H5.29171C6.29052 6.59085 7.89045 5.27238 9.79171 4.625C9.16671 5.78125 8.69796 7.03125 8.33337 8.33333ZM5.29171 16.6667H8.33337C8.69796 17.9688 9.16671 19.2188 9.79171 20.375C7.89444 19.7205 6.29676 18.4039 5.29171 16.6667ZM4.43754 14.5833C4.27087 13.9167 4.16671 13.2188 4.16671 12.5C4.16671 11.7813 4.27087 11.0833 4.43754 10.4167H7.95837C7.87504 11.1042 7.81254 11.7917 7.81254 12.5C7.81254 13.2083 7.87504 13.8958 7.95837 14.5833H4.43754ZM12.5 4.19792C13.3646 5.44792 14.0625 6.84375 14.4896 8.33333H10.5105C10.9375 6.84375 11.6355 5.44792 12.5 4.19792ZM19.7084 8.33333H16.6355C16.3094 7.04319 15.8267 5.79781 15.198 4.625C17.1146 5.28125 18.7084 6.60417 19.7084 8.33333ZM12.5 2.08333C6.73962 2.08333 2.08337 6.77083 2.08337 12.5C2.08337 15.2627 3.18084 17.9122 5.13435 19.8657C6.10162 20.833 7.24995 21.6003 8.51375 22.1237C9.77756 22.6472 11.1321 22.9167 12.5 22.9167C15.2627 22.9167 17.9122 21.8192 19.8657 19.8657C21.8192 17.9122 22.9167 15.2627 22.9167 12.5C22.9167 11.1321 22.6473 9.77752 22.1238 8.51371C21.6003 7.24991 20.833 6.10158 19.8657 5.13431C18.8985 4.16703 17.7501 3.39974 16.4863 2.87626C15.2225 2.35277 13.868 2.08333 12.5 2.08333Z" fill="#EFEFEF"/>
</svg>
